# xmcd CD database file
#
# Track frame offsets:
#	150
#	9724
#	24331
#	40916
#	51779
#	74195
#	87966
#	132177
#	149652
#	164142
#	176144
#	191219
#
# Disc length: 2873 seconds
#
# Revision: 0
# Processed by: cddbd v1.4PL0 Copyright (c) Steve Scherf et al.
# Submitted via: CDex 1.40Beta9
#
DISCID=b90b370c
DTITLE=Wide Open Road - Wide Open Road 
DYEAR=2002
DGENRE=Blues
TTITLE0=440
TTITLE1=Doesn't Really Matter
TTITLE2=Stuck In Georgia
TTITLE3=In My Eyes
TTITLE4=It's Time
TTITLE5=Biscuit Roller Blues
TTITLE6=Midnight Candles
TTITLE7=Road Song
TTITLE8=Music Is Love
TTITLE9=Somebody Else's Fault
TTITLE10=Martin Luther King
TTITLE11=Long Beach Bossa
EXTD=YEAR: 2002 ID3G: 0
EXTT0=
EXTT1=
EXTT2=
EXTT3=
EXTT4=
EXTT5=
EXTT6=
EXTT7=
EXTT8=
EXTT9=
EXTT10=
EXTT11=
PLAYORDER=
